<?xml version="1.0" standalone="no"?>
<!DOCTYPE svg PUBLIC "-//W3C//DTD SVG 20010904//EN"
 "http://www.w3.org/TR/2001/REC-SVG-20010904/DTD/svg10.dtd">
<svg version="1.0" xmlns="http://www.w3.org/2000/svg"
 width="501.000000pt" height="501.000000pt" viewBox="0 0 501.000000 501.000000"
 preserveAspectRatio="xMidYMid meet">
<metadata>
Created by potrace 1.14, written by Peter Selinger 2001-2017
</metadata>
<g transform="translate(0.000000,501.000000) scale(0.100000,-0.100000)"
fill="#000000" stroke="none">
<path d="M635 5000 c-236 -28 -448 -175 -549 -381 -89 -181 -81 23 -84 -2074
-2 -1639 -1 -1870 13 -1949 55 -317 303 -549 628 -586 62 -8 679 -10 1922 -8
l1830 3 78 22 c207 59 365 190 457 378 75 153 70 -4 70 2100 0 2103 5 1947
-70 2100 -70 143 -182 255 -325 325 -165 81 14 74 -2060 76 -1017 1 -1877 -2
-1910 -6z m912 -1446 c17 -26 376 -1515 412 -1709 10 -55 21 -93 24 -85 3 8
12 55 21 104 33 177 388 1652 405 1681 l17 30 430 0 c385 0 436 -2 494 -18
189 -54 319 -190 367 -384 22 -93 22 -277 -1 -363 -35 -134 -102 -240 -193
-306 -56 -41 -160 -83 -205 -84 -16 0 -28 -3 -28 -6 0 -4 29 -37 64 -74 103
-109 122 -147 309 -611 52 -130 96 -244 97 -255 5 -43 3 -44 -83 -44 -74 0
-86 3 -104 23 -12 12 -73 142 -136 288 -144 333 -166 377 -233 465 -97 128
-152 153 -336 154 l-128 0 0 -449 c0 -395 -2 -451 -16 -465 -11 -12 -35 -16
-86 -16 -120 0 -108 -100 -108 898 0 476 -2 863 -4 861 -2 -2 -97 -384 -211
-849 -113 -465 -214 -858 -224 -875 -17 -29 -19 -30 -108 -33 -86 -3 -92 -1
-110 21 -12 16 -89 313 -228 882 l-210 858 -5 -865 c-4 -722 -7 -868 -19 -882
-12 -14 -29 -16 -95 -14 l-81 3 -12 35 c-15 45 -18 2006 -3 2059 5 19 15 38
22 43 7 4 75 8 150 8 l138 0 17 -26z"/>
<path d="M2740 2971 l0 -361 223 0 c191 0 235 3 302 20 190 49 250 139 250
375 0 97 -3 116 -27 166 -30 65 -71 101 -154 132 -54 20 -81 22 -326 25 l-268
3 0 -360z"/>
</g>
</svg>
