<?xml version="1.0" standalone="no"?>
<!DOCTYPE svg PUBLIC "-//W3C//DTD SVG 20010904//EN"
 "http://www.w3.org/TR/2001/REC-SVG-20010904/DTD/svg10.dtd">
<svg version="1.0" xmlns="http://www.w3.org/2000/svg"
 width="501.000000pt" height="501.000000pt" viewBox="0 0 501.000000 501.000000"
 preserveAspectRatio="xMidYMid meet">
<metadata>
Created by potrace 1.14, written by Peter Selinger 2001-2017
</metadata>
<g transform="translate(0.000000,501.000000) scale(0.100000,-0.100000)"
fill="#000000" stroke="none">
<path d="M2220 4985 c-592 -74 -1098 -325 -1506 -748 -570 -589 -809 -1390
-659 -2203 180 -974 948 -1761 1926 -1973 324 -70 713 -70 1049 0 470 97 888
326 1241 678 315 316 530 682 644 1096 179 655 87 1358 -254 1935 -385 650
-1035 1088 -1791 1205 -147 23 -501 28 -650 10z m83 -2112 c111 -216 204 -393
207 -393 3 0 94 178 203 395 l197 395 255 0 255 0 0 -825 0 -825 -255 0 -255
0 -2 429 -3 428 -146 -276 -146 -276 -104 -3 -104 -2 -150 282 -150 282 -3
-432 -2 -432 -250 0 -250 0 0 825 0 825 251 -2 251 -3 201 -392z"/>
</g>
</svg>
